<mxfile host="app.diagrams.net" modified="2024-06-11T00:25:32.776Z" agent="Mozilla/5.0 (Windows NT 10.0; Win64; x64) AppleWebKit/537.36 (KHTML, like Gecko) Chrome/125.0.0.0 Safari/537.36" etag="b34gtuWu5RPiS019VZQO" version="24.5.2" type="device">
  <diagram name="PÃ¡gina-1" id="8iQI2yRuVqVYYaAT_jJe">
    <mxGraphModel dx="1114" dy="558" grid="1" gridSize="10" guides="1" tooltips="1" connect="1" arrows="1" fold="1" page="1" pageScale="1" pageWidth="827" pageHeight="1169" math="0" shadow="0">
      <root>
        <mxCell id="0" />
        <mxCell id="1" parent="0" />
        <mxCell id="jCPc-7MEmdEh8w35CGOo-1" value="" style="ellipse;html=1;shape=startState;fillColor=#1B1D1E;strokeColor=#FF3333;" parent="1" vertex="1">
          <mxGeometry x="20" y="70" width="30" height="30" as="geometry" />
        </mxCell>
        <mxCell id="jCPc-7MEmdEh8w35CGOo-2" value="" style="edgeStyle=orthogonalEdgeStyle;html=1;verticalAlign=bottom;endArrow=open;endSize=8;rounded=0;fillColor=none;strokeColor=#1B1D1E;" parent="1" source="jCPc-7MEmdEh8w35CGOo-1" target="jCPc-7MEmdEh8w35CGOo-5" edge="1">
          <mxGeometry relative="1" as="geometry">
            <mxPoint x="414" y="80" as="targetPoint" />
          </mxGeometry>
        </mxCell>
        <mxCell id="jCPc-7MEmdEh8w35CGOo-5" value="Search a specific product" style="rhombus;whiteSpace=wrap;html=1;fillColor=#ffffc0;strokeColor=#36393d;" parent="1" vertex="1">
          <mxGeometry x="80" y="30" width="140" height="110" as="geometry" />
        </mxCell>
        <mxCell id="jCPc-7MEmdEh8w35CGOo-6" value="yes" style="edgeStyle=orthogonalEdgeStyle;html=1;align=left;verticalAlign=bottom;endArrow=open;endSize=8;rounded=0;fillColor=none;strokeColor=#1B1D1E;" parent="1" source="jCPc-7MEmdEh8w35CGOo-5" target="jCPc-7MEmdEh8w35CGOo-18" edge="1">
          <mxGeometry x="-1" relative="1" as="geometry">
            <mxPoint x="560" y="135" as="targetPoint" />
          </mxGeometry>
        </mxCell>
        <mxCell id="jCPc-7MEmdEh8w35CGOo-8" value="no" style="edgeStyle=orthogonalEdgeStyle;html=1;align=left;verticalAlign=top;endArrow=open;endSize=8;rounded=0;exitX=0.5;exitY=1;exitDx=0;exitDy=0;entryX=0;entryY=0.5;entryDx=0;entryDy=0;fillColor=none;strokeColor=#1B1D1E;" parent="1" target="jCPc-7MEmdEh8w35CGOo-9" edge="1" source="jCPc-7MEmdEh8w35CGOo-5">
          <mxGeometry x="-0.5" y="10" relative="1" as="geometry">
            <mxPoint x="414" y="240" as="targetPoint" />
            <mxPoint x="414" y="190" as="sourcePoint" />
            <Array as="points" />
            <mxPoint as="offset" />
          </mxGeometry>
        </mxCell>
        <mxCell id="jCPc-7MEmdEh8w35CGOo-9" value="Select a product in the principal interface" style="rounded=1;whiteSpace=wrap;html=1;arcSize=40;fillColor=#ffffc0;strokeColor=#36393d;" parent="1" vertex="1">
          <mxGeometry x="250" y="140" width="120" height="40" as="geometry" />
        </mxCell>
        <mxCell id="jCPc-7MEmdEh8w35CGOo-10" value="" style="edgeStyle=orthogonalEdgeStyle;html=1;verticalAlign=bottom;endArrow=open;endSize=8;rounded=0;fillColor=none;strokeColor=#1B1D1E;" parent="1" source="jCPc-7MEmdEh8w35CGOo-9" target="jCPc-7MEmdEh8w35CGOo-11" edge="1">
          <mxGeometry relative="1" as="geometry">
            <mxPoint x="414" y="290" as="targetPoint" />
          </mxGeometry>
        </mxCell>
        <mxCell id="jCPc-7MEmdEh8w35CGOo-11" value="go to activity diagram price of x units" style="rounded=1;whiteSpace=wrap;html=1;arcSize=40;fillColor=#ffffc0;strokeColor=#36393d;" parent="1" vertex="1">
          <mxGeometry x="414" y="140" width="120" height="40" as="geometry" />
        </mxCell>
        <mxCell id="jCPc-7MEmdEh8w35CGOo-12" value="" style="edgeStyle=orthogonalEdgeStyle;html=1;verticalAlign=bottom;endArrow=open;endSize=8;rounded=0;fillColor=none;strokeColor=#1B1D1E;" parent="1" source="jCPc-7MEmdEh8w35CGOo-11" target="jCPc-7MEmdEh8w35CGOo-13" edge="1">
          <mxGeometry relative="1" as="geometry">
            <mxPoint x="414" y="350" as="targetPoint" />
          </mxGeometry>
        </mxCell>
        <mxCell id="jCPc-7MEmdEh8w35CGOo-13" value="push pay buttom" style="rounded=1;whiteSpace=wrap;html=1;arcSize=40;fillColor=#ffffc0;strokeColor=#36393d;" parent="1" vertex="1">
          <mxGeometry x="414" y="210" width="120" height="40" as="geometry" />
        </mxCell>
        <mxCell id="jCPc-7MEmdEh8w35CGOo-14" value="" style="edgeStyle=orthogonalEdgeStyle;html=1;verticalAlign=bottom;endArrow=open;endSize=8;rounded=0;fillColor=none;strokeColor=#1B1D1E;" parent="1" source="jCPc-7MEmdEh8w35CGOo-13" target="jCPc-7MEmdEh8w35CGOo-15" edge="1">
          <mxGeometry relative="1" as="geometry">
            <mxPoint x="414" y="400" as="targetPoint" />
          </mxGeometry>
        </mxCell>
        <mxCell id="jCPc-7MEmdEh8w35CGOo-15" value="go to activity diagram payment process" style="rounded=1;whiteSpace=wrap;html=1;arcSize=40;fillColor=#ffffc0;strokeColor=#36393d;" parent="1" vertex="1">
          <mxGeometry x="600" y="210" width="120" height="40" as="geometry" />
        </mxCell>
        <mxCell id="jCPc-7MEmdEh8w35CGOo-16" value="" style="edgeStyle=orthogonalEdgeStyle;html=1;verticalAlign=bottom;endArrow=open;endSize=8;rounded=0;fillColor=none;strokeColor=#1B1D1E;" parent="1" source="jCPc-7MEmdEh8w35CGOo-15" target="jCPc-7MEmdEh8w35CGOo-17" edge="1">
          <mxGeometry relative="1" as="geometry">
            <mxPoint x="414" y="460" as="targetPoint" />
          </mxGeometry>
        </mxCell>
        <mxCell id="jCPc-7MEmdEh8w35CGOo-17" value="" style="ellipse;html=1;shape=endState;fillColor=#1B1D1E;strokeColor=#FF3333;" parent="1" vertex="1">
          <mxGeometry x="770" y="215" width="30" height="30" as="geometry" />
        </mxCell>
        <mxCell id="jCPc-7MEmdEh8w35CGOo-18" value="go to activity diagram search product&amp;nbsp;" style="rounded=1;whiteSpace=wrap;html=1;arcSize=40;fillColor=#ffffc0;strokeColor=#36393d;" parent="1" vertex="1">
          <mxGeometry x="300" y="65" width="120" height="40" as="geometry" />
        </mxCell>
        <mxCell id="jCPc-7MEmdEh8w35CGOo-19" value="" style="edgeStyle=orthogonalEdgeStyle;html=1;verticalAlign=bottom;endArrow=open;endSize=8;rounded=0;fillColor=none;strokeColor=#1B1D1E;" parent="1" source="jCPc-7MEmdEh8w35CGOo-18" target="jCPc-7MEmdEh8w35CGOo-22" edge="1">
          <mxGeometry relative="1" as="geometry">
            <mxPoint x="620" y="210" as="targetPoint" />
          </mxGeometry>
        </mxCell>
        <mxCell id="0fzhaBpjiZiDeSNpWr1j-1" style="edgeStyle=orthogonalEdgeStyle;rounded=0;orthogonalLoop=1;jettySize=auto;html=1;fillColor=none;strokeColor=#1B1D1E;" edge="1" parent="1" source="jCPc-7MEmdEh8w35CGOo-22" target="jCPc-7MEmdEh8w35CGOo-11">
          <mxGeometry relative="1" as="geometry" />
        </mxCell>
        <mxCell id="jCPc-7MEmdEh8w35CGOo-22" value="go to activity diagram select product" style="rounded=1;whiteSpace=wrap;html=1;arcSize=40;fillColor=#ffffc0;strokeColor=#36393d;" parent="1" vertex="1">
          <mxGeometry x="490" y="65" width="120" height="40" as="geometry" />
        </mxCell>
      </root>
    </mxGraphModel>
  </diagram>
</mxfile>
